RBDS04runT25_grf
version=1
nRows=15
nColumns=19
inDegrees=no
endheader
time	ground_force_r_vx	ground_force_r_vy	ground_force_r_vz	ground_force_r_px	ground_force_r_py	ground_force_r_pz	ground_force_r_mx	ground_force_r_my	ground_force_r_mz	ground_force_l_vx	ground_force_l_vy	ground_force_l_vz	ground_force_l_px	ground_force_l_py	ground_force_l_pz	ground_force_l_mx	ground_force_l_my	ground_force_l_mz
     14.99900000	      0.00000000	      0.00000000	      0.00000000	      0.00000000	      0.00000000	      0.00000000	      0.00000000	      0.00000000	      0.00000000	    108.88344617	    508.17523163	     -3.56432855	      1.89935232	      0.00000000	      0.92692672	     -0.00000000	      7.07885342	     -0.00000000
     15.00000000	      0.00000000	      0.00000000	      0.00000000	      0.00000000	      0.00000000	      0.00000000	      0.00000000	      0.00000000	      0.00000000	    108.36108694	    496.67141962	     -3.96432205	      1.89703725	      0.00000000	      0.92701141	     -0.00000000	      6.94254535	     -0.00000000
     15.00100000	      0.00000000	      0.00000000	      0.00000000	      0.00000000	      0.00000000	      0.00000000	      0.00000000	      0.00000000	      0.00000000	    107.61978288	    485.42216353	     -4.29325314	      1.89467420	      0.00000000	      0.92709827	     -0.00000000	      6.81121653	     -0.00000000
     15.00200000	      0.00000000	      0.00000000	      0.00000000	      0.00000000	      0.00000000	      0.00000000	      0.00000000	      0.00000000	      0.00000000	    106.87847882	    474.17290743	     -4.62218423	      1.89231115	      0.00000000	      0.92718513	     -0.00000000	      6.67988771	     -0.00000000
     15.00300000	      0.00000000	      0.00000000	      0.00000000	      0.00000000	      0.00000000	      0.00000000	      0.00000000	      0.00000000	      0.00000000	    106.13717476	    462.92365134	     -4.95111531	      1.88994810	      0.00000000	      0.92727199	     -0.00000000	      6.54855889	     -0.00000000
     15.00400000	      0.00000000	      0.00000000	      0.00000000	      0.00000000	      0.00000000	      0.00000000	      0.00000000	      0.00000000	      0.00000000	    105.26120858	    451.87131211	     -5.23623254	      1.88755175	      0.00000000	      0.92736179	     -0.00000000	      6.42179498	     -0.00000000
     15.00500000	      0.00000000	      0.00000000	      0.00000000	      0.00000000	      0.00000000	      0.00000000	      0.00000000	      0.00000000	      0.00000000	    104.31791134	    440.91743131	     -5.49944283	      1.88513875	      0.00000000	      0.92745307	     -0.00000000	      6.29731353	     -0.00000000
     15.00600000	      0.00000000	      0.00000000	      0.00000000	      0.00000000	      0.00000000	      0.00000000	      0.00000000	      0.00000000	      0.00000000	    103.37461410	    429.96355051	     -5.76265312	      1.88272575	      0.00000000	      0.92754435	     -0.00000000	      6.17283208	     -0.00000000
     15.00700000	      0.00000000	      0.00000000	      0.00000000	      0.00000000	      0.00000000	      0.00000000	      0.00000000	      0.00000000	      0.00000000	    102.37048368	    419.12094479	     -6.00612852	      1.88029597	      0.00000000	      0.92763787	     -0.00000000	      6.05123778	     -0.00000000
     15.00800000	      0.00000000	      0.00000000	      0.00000000	      0.00000000	      0.00000000	      0.00000000	      0.00000000	      0.00000000	      0.00000000	    101.24468689	    408.50088924	     -6.21013414	      1.87783262	      0.00000000	      0.92773589	     -0.00000000	      5.93541776	     -0.00000000
     15.00900000	      0.00000000	      0.00000000	      0.00000000	      0.00000000	      0.00000000	      0.00000000	      0.00000000	      0.00000000	      0.00000000	    100.11889009	    397.88083370	     -6.41413977	      1.87536928	      0.00000000	      0.92783391	     -0.00000000	      5.81959775	     -0.00000000
     15.01000000	      0.00000000	      0.00000000	      0.00000000	      0.00000000	      0.00000000	      0.00000000	      0.00000000	      0.00000000	      0.00000000	     98.99309330	    387.26077815	     -6.61814539	      1.87290594	      0.00000000	      0.92793193	     -0.00000000	      5.70377774	     -0.00000000
     15.01100000	      0.00000000	      0.00000000	      0.00000000	      0.00000000	      0.00000000	      0.00000000	      0.00000000	      0.00000000	      0.00000000	     97.70650100	    377.01035757	     -6.77031759	      1.87039386	      0.00000000	      0.92803897	     -0.00000000	      5.59832229	     -0.00000000
     15.01200000	      0.00000000	      0.00000000	      0.00000000	      0.00000000	      0.00000000	      0.00000000	      0.00000000	      0.00000000	      0.00000000	     96.41990870	    366.75993699	     -6.92248979	      1.86788178	      0.00000000	      0.92814601	     -0.00000000	      5.49286683	     -0.00000000
     15.01300000	      0.00000000	      0.00000000	      0.00000000	      0.00000000	      0.00000000	      0.00000000	      0.00000000	      0.00000000	      0.00000000	     95.13331640	    356.50951641	     -7.07466199	      1.86536969	      0.00000000	      0.92825305	     -0.00000000	      5.38741138	     -0.00000000
